<?xml version="1.0" encoding="utf-8"?>
<!-- Generator: Adobe Illustrator 22.0.1, SVG Export Plug-In . SVG Version: 6.00 Build 0)  -->
<svg version="1.1" id="Capa_1" xmlns="http://www.w3.org/2000/svg" xmlns:xlink="http://www.w3.org/1999/xlink" x="0px" y="0px"
	 viewBox="0 0 439.6 121" style="enable-background:new 0 0 439.6 121;" xml:space="preserve">
<style type="text/css">
	.st0{enable-background:new    ;}
	.st1{fill:#1D3557;}
	.st2{fill:#FCC200;}
	.st3{fill:#1D1D1B;}
	.st4{opacity:0.387;fill:#BF9509;enable-background:new    ;}
	.st5{fill:#CBBBA0;}
	.st6{clip-path:url(#SVGID_2_);}
	.st7{fill:#FFFFFF;}
	.st8{clip-path:url(#SVGID_4_);}
</style>
<g class="st0">
	<path class="st1" d="M175.9,78.8c0,2.7,2.6,4,7.8,4V88h-27.9v-5.1c5.2,0,7.7-1.4,7.7-4V27.9c0-2.7-2.6-4-7.7-4v-5.1h20.1V78.8z"/>
	<path class="st1" d="M236.3,79.2c0,2.6,0.9,4,2.7,4c0.8,0,1.5-0.4,1.9-1.2c0.4-0.8,0.6-1.7,0.6-2.8v-5.3h4.2v4.1c0,2-0.2,3.7-0.7,5
		c-0.5,1.4-1.2,2.5-2.1,3.3c-0.9,0.8-2,1.4-3.2,1.8c-1.2,0.4-2.6,0.5-4,0.5c-1.6,0-3-0.3-4.1-0.8c-1.1-0.5-2.1-1.2-2.9-2
		c-0.8-0.8-1.4-1.8-1.8-2.9s-0.8-2.2-1-3.4c-0.7,1.3-1.6,2.6-2.7,3.8s-2.6,2.3-4.2,3.2c-1.6,0.9-3.5,1.7-5.5,2.2
		c-2,0.5-4.2,0.8-6.6,0.8c-5.6,0-9.8-1.2-12.4-3.5c-2.6-2.3-3.9-5.4-3.9-9.4c0-2.4,0.5-4.4,1.4-6c0.9-1.6,2.2-2.9,3.9-4
		c1.6-1.1,3.6-1.9,5.8-2.6c2.2-0.6,4.5-1.2,7-1.7c2.5-0.5,5.1-1,7.7-1.5c2.7-0.5,5.3-1.1,8-1.8v-2.8c0-1.5-0.2-2.9-0.6-4.2
		c-0.4-1.3-1-2.5-1.9-3.5c-0.9-1-2-1.8-3.3-2.3c-1.3-0.6-2.9-0.9-4.7-0.9c-3.1,0-5.6,0.3-7.7,0.9c-2.1,0.6-3.7,1.4-5,2.4
		c1.4,0.1,2.6,0.6,3.5,1.4c1,0.8,1.4,1.9,1.4,3.3c0,1.7-0.5,3-1.6,4.1c-1.1,1.1-2.7,1.6-4.8,1.6c-2.1,0-3.7-0.6-4.7-1.7
		c-1.1-1.1-1.6-2.7-1.6-4.6c0-1.5,0.5-3,1.4-4.5c1-1.5,2.3-2.8,4.1-4c1.8-1.2,4-2.1,6.7-2.9c2.7-0.7,5.7-1.1,9.1-1.1
		c2.8,0,5.4,0.3,8,0.8c2.6,0.5,4.9,1.4,6.8,2.6c2,1.2,3.6,2.9,4.7,5c1.2,2.1,1.8,4.8,1.8,8.1V79.2z M224.5,62.7
		c-3.8,1-7.2,1.8-10,2.7c-2.8,0.8-5.2,1.7-7,2.6c-1.9,0.9-3.2,2-4.1,3.2c-0.9,1.2-1.4,2.7-1.4,4.5c0,2.2,0.8,3.8,2.2,5
		c1.5,1.2,3.8,1.8,6.8,1.8c3.1,0,5.8-0.7,8.1-2.2c2.4-1.5,4.1-3.2,5.3-5.1V62.7z"/>
	<path class="st1" d="M291.7,58.7l-5.3,0.6c-0.7-4.2-2.4-7.3-5.3-9.4c-2.8-2-6.4-3.1-10.8-3.1c-2.5,0-4.6,0.5-6.1,1.5
		c-1.6,1-2.3,2.3-2.3,4c0,1.9,0.8,3.3,2.4,4.3c1.6,0.9,3.6,1.7,5.9,2.3c2.4,0.6,4.9,1.2,7.7,1.7c2.8,0.5,5.3,1.3,7.7,2.3
		c2.4,1,4.3,2.4,5.9,4.3c1.6,1.8,2.4,4.3,2.4,7.5c0,2.3-0.4,4.3-1.3,6c-0.8,1.7-2,3.2-3.6,4.4c-1.5,1.2-3.3,2-5.4,2.6
		c-2.1,0.6-4.4,0.9-6.9,0.9c-3.6,0-6.6-0.3-8.9-0.9c-2.3-0.6-4.3-1.5-5.9-2.6c-0.4-0.2-0.9-0.5-1.3-0.7c-0.5-0.2-0.9-0.4-1.3-0.4
		c-0.1,0-0.5,0.3-1,1c-0.5,0.7-0.9,1.7-1.2,3h-5.2V70.7l5.2-0.5c0.3,2,1,3.9,2.1,5.5c1.1,1.6,2.5,3,4.1,4.1c1.6,1.1,3.5,2,5.6,2.6
		c2.1,0.6,4.2,0.9,6.3,0.9c2.9,0,5.1-0.6,6.5-1.8c1.5-1.2,2.2-2.6,2.2-4.4c0-1.9-0.8-3.2-2.4-4.2c-1.6-0.9-3.6-1.7-5.9-2.3
		c-2.4-0.6-4.9-1.2-7.7-1.7c-2.8-0.5-5.3-1.3-7.7-2.4s-4.4-2.5-5.9-4.4c-1.6-1.9-2.4-4.4-2.4-7.6c0-4.1,1.4-7.4,4.3-9.7
		c2.9-2.3,7-3.5,12.2-3.5c2.8,0,5.3,0.4,7.7,1.1c2.3,0.8,4.2,1.5,5.7,2.4c0.5,0.3,0.9,0.6,1.3,0.8c0.4,0.2,0.8,0.3,1.3,0.3
		c0.2,0,0.5-0.3,1-1c0.5-0.7,0.9-1.6,1.2-2.8h5V58.7z"/>
	<path class="st1" d="M355.6,47.3c-2.2,0-3.8,0.3-4.8,0.8c-1,0.5-1.7,1.3-2.2,2.3l-16.4,39.4c-1.3,3.1-2.4,5.7-3.5,8.1
		c-1,2.3-2.2,4.3-3.5,5.8c-1.3,1.6-2.8,2.8-4.5,3.6c-1.7,0.8-3.9,1.2-6.6,1.2c-4.1,0-7.5-1-10.1-3.1c-2.6-2.1-3.9-4.8-3.9-8.3
		c0-0.6,0.1-1.3,0.4-2.1c0.2-0.8,0.6-1.5,1.2-2.2c0.5-0.7,1.2-1.2,2-1.7c0.8-0.5,1.7-0.7,2.8-0.7c2.1,0,3.7,0.5,4.7,1.5
		c1,1,1.5,2.2,1.5,3.6c0,1.6-0.5,2.8-1.4,3.6c-0.9,0.9-2.2,1.4-3.7,1.6c0.5,0.9,1.3,1.6,2.3,2.1c1,0.6,2.6,0.8,4.9,0.8
		c2.2,0,3.9-0.9,5.3-2.6c1.4-1.7,2.9-4.4,4.6-8.1l-18-42.7c-1-2.1-3.2-3.1-6.5-3.1v-5.1H326v5.1h-4.4c-1.7,0-2.6,0.6-2.6,1.7
		c0,0.5,0.1,0.9,0.3,1.3l11.7,29.4l11.9-28.6c0.2-0.5,0.3-1,0.3-1.4c0-1.6-1.3-2.4-3.9-2.4h-2.7v-5.1h19.1V47.3z"/>
</g>
<g class="st0">
	<path class="st2" d="M40.6,39.8c4,0,7.5,1.1,10.5,3.3c3.1,2.2,5.4,5.1,7.1,8.8c1.7,3.7,2.5,7.6,2.5,11.9c0,4.3-0.8,8.3-2.4,12
		s-3.9,6.6-6.9,8.8c-3,2.2-6.4,3.2-10.3,3.2c-4.9,0-9.4-2-13.5-6V87H4.8V76.4h8v-45h-8V20.8h22.7v25.4
		C31.2,41.9,35.6,39.8,40.6,39.8z M36.5,76.3c2.8,0,5-1.2,6.6-3.5c1.6-2.3,2.4-5.4,2.4-9.3c0-3.8-0.8-6.8-2.4-8.8
		c-1.6-2-3.8-3-6.5-3c-2.9,0-5.1,1.1-6.7,3.4s-2.4,5.3-2.4,9.1c0,3.5,0.8,6.4,2.5,8.7C31.6,75.2,33.8,76.3,36.5,76.3z"/>
	<path class="st2" d="M116.5,67H82c0.4,3.5,1.6,6.4,3.7,8.4c2.1,2.1,4.8,3.1,8.1,3.1c3.7,0,7.2-1.8,10.7-5.4l11.4,3.7
		c-2.5,3.8-5.6,6.6-9.4,8.5c-3.7,1.9-8.1,2.8-13.2,2.8s-9.6-1-13.5-2.9c-3.9-1.9-6.9-4.6-9.1-8.2s-3.2-7.6-3.2-12.4
		c0-4.7,1.1-8.9,3.4-12.7s5.3-6.8,9.1-8.9c3.8-2.2,8-3.2,12.5-3.2c4.9,0,9.1,1.1,12.7,3.4c3.6,2.2,6.4,5.4,8.3,9.5
		C115.4,56.8,116.4,61.6,116.5,67z M91.7,49.6c-2.6,0-4.8,0.8-6.4,2.3c-1.6,1.5-2.6,3.9-3,7h19.2c-0.4-2.8-1.5-5-3.4-6.7
		C96.4,50.4,94.2,49.6,91.7,49.6z"/>
	<path class="st2" d="M171.3,67h-34.5c0.4,3.5,1.6,6.4,3.7,8.4c2.1,2.1,4.8,3.1,8.1,3.1c3.7,0,7.2-1.8,10.7-5.4l11.4,3.7
		c-2.5,3.8-5.6,6.6-9.4,8.5c-3.7,1.9-8.1,2.8-13.2,2.8s-9.6-1-13.5-2.9c-3.9-1.9-6.9-4.6-9.1-8.2s-3.2-7.6-3.2-12.4
		c0-4.7,1.1-8.9,3.4-12.7s5.3-6.8,9.1-8.9c3.8-2.2,8-3.2,12.5-3.2c4.9,0,9.1,1.1,12.7,3.4c3.6,2.2,6.4,5.4,8.3,9.5
		C170.2,56.8,171.2,61.6,171.3,67z M146.5,49.6c-2.6,0-4.8,0.8-6.4,2.3c-1.6,1.5-2.6,3.9-3,7h19.2c-0.4-2.8-1.5-5-3.4-6.7
		C151.2,50.4,149,49.6,146.5,49.6z"/>
</g>
<g id="Grupo_55" transform="matrix(0.891, -0.454, 0.454, 0.891, 190.984, 1976.407)">
	<path id="Trazado_5" class="st3" d="M1038.1-1593.6l4.7,23.5l6.2-24.5L1038.1-1593.6z"/>
	<path id="Trazado_16" class="st2" d="M1043.7-1659.4c16.1,0,29.2,16.2,29.2,36.2c0,20-13.1,36.2-29.2,36.2
		c-16.1,0-29.2-16.2-29.2-36.2C1014.5-1643.2,1027.6-1659.4,1043.7-1659.4z"/>
	<path id="Trazado_6" class="st4" d="M1072.9-1623.2c0,20-13.1,36.2-29.2,36.2c10.2-8.2,13.6-16.2,13.6-36.2s-6.2-29.2-13.6-36.2
		C1059.8-1659.4,1072.9-1643.2,1072.9-1623.2z"/>
	<g id="Grupo_46" transform="translate(434.177 308.89)">
		<path class="st3" d="M585.5-1945.5c-1.2-0.6-1.7-1.2-2-1.6c-0.7-1.1-0.5-2.5,0.6-3.2c1-0.7,2.3-0.5,3.1,0.4
			c0.4,0.3,4.3,2.9,22.2,2.9c18,0,21.9-2.6,22.3-2.9c0.8-0.9,2.1-1,3.1-0.4c1,0.7,1.3,2.2,0.6,3.2c-1,1.4-5.5,4.7-25.9,4.7
			C594.8-1942.4,588.4-1944,585.5-1945.5z M587.3-1949.7C587.3-1949.7,587.3-1949.7,587.3-1949.7
			C587.3-1949.7,587.3-1949.7,587.3-1949.7z M587.3-1949.7C587.3-1949.7,587.3-1949.7,587.3-1949.7
			C587.3-1949.7,587.3-1949.7,587.3-1949.7z M587.3-1949.7L587.3-1949.7L587.3-1949.7z M631.4-1949.7
			C631.4-1949.7,631.4-1949.7,631.4-1949.7C631.4-1949.7,631.4-1949.7,631.4-1949.7z M631.4-1949.7L631.4-1949.7L631.4-1949.7z
			 M631.6-1950L631.6-1950L631.6-1950z"/>
		<path class="st3" d="M580.4-1929.4c-2.6-1.3-3.6-2.6-4-3.3c-0.7-1.4-0.2-3.2,1.2-3.9c1.3-0.7,3-0.2,3.8,1
			c0.3,0.4,4.9,4.7,26.8,4.7c22.7,0,26.8-4.7,26.8-4.7c-0.1,0.2-0.2,0.3-0.2,0.3l5.1,2.7c-0.9,1.8-6,7.5-31.8,7.5
			C592.5-1925.2,584.5-1927.3,580.4-1929.4z M581.5-1935.4C581.5-1935.4,581.5-1935.4,581.5-1935.4
			C581.5-1935.4,581.5-1935.4,581.5-1935.4z M581.5-1935.4L581.5-1935.4L581.5-1935.4z M581.4-1935.7L581.4-1935.7L581.4-1935.7z"/>
		<path class="st3" d="M585.5-1912c-1.5-0.8-2.3-2.6-1.7-4.2c0.6-1.8,2.6-2.8,4.4-2.2c0.2,0.1,8.1,2.7,21.8,2.7c14.3,0,20.9-2,21-2
			c1.8-0.6,3.8,0.4,4.4,2.3c0.6,1.8-0.4,3.8-2.2,4.4c-0.3,0.1-7.6,2.4-23.1,2.4c-15,0-23.7-2.9-24-3.1
			C585.8-1911.9,585.7-1912,585.5-1912z"/>
	</g>
	<g id="Grupo_49" transform="translate(416.006 302.896)">
		<path id="Trazado_10" class="st5" d="M606.8-1917.6c-5.7,11.5-14.2,14.1-21.9,10.3c-7.7-3.8-11.8-12.7-6.1-24.2
			c5.7-11.5,26.7-17.4,26.7-17.4S612.5-1929.1,606.8-1917.6z"/>
		<g id="Grupo_48" transform="translate(0.919 0)">
			<g>
				<defs>
					<path id="SVGID_1_" d="M604.6-1919.3c-5.6,11.3-13.3,14.2-20.1,10.8c-6.8-3.4-11.3-12.1-5.7-23.3c5.6-11.3,26-17.5,26-17.5
						S610.2-1930.6,604.6-1919.3z"/>
				</defs>
				<clipPath id="SVGID_2_">
					<use xlink:href="#SVGID_1_"  style="overflow:visible;"/>
				</clipPath>
				<g id="Grupo_47" class="st6">
					<path id="Trazado_11" class="st7" d="M602.2-1923.5c-5.6,11.3-13.3,14.2-20.1,10.8c-6.8-3.4-8.9-16.1,0.4-24.5
						c15.2-13.7,19.9-16.4,19.9-16.4S607.8-1934.8,602.2-1923.5z"/>
				</g>
			</g>
		</g>
	</g>
	<g id="Grupo_52" transform="translate(476.624 302.896)">
		<path id="Trazado_13" class="st5" d="M587.9-1917.6c5.7,11.5,14.2,14.1,21.9,10.3s11.8-12.7,6.1-24.2
			c-5.7-11.5-26.7-17.4-26.7-17.4S582.2-1929.1,587.9-1917.6z"/>
		<g id="Grupo_51" transform="translate(0.844 0)">
			<g>
				<defs>
					<path id="SVGID_3_" d="M588.4-1919.3c5.6,11.3,13.3,14.2,20.1,10.8c6.8-3.4,11.3-12.1,5.7-23.3s-26-17.5-26-17.5
						S582.8-1930.6,588.4-1919.3z"/>
				</defs>
				<clipPath id="SVGID_4_">
					<use xlink:href="#SVGID_3_"  style="overflow:visible;"/>
				</clipPath>
				<g id="Grupo_50" class="st8">
					<path id="Trazado_14" class="st7" d="M589.6-1923.9c5.6,11.3,13.3,14.2,20.1,10.8c6.8-3.4,8.9-16.1-0.4-24.5
						c-15.2-13.7-19.9-16.4-19.9-16.4S584-1935.2,589.6-1923.9z"/>
				</g>
			</g>
		</g>
	</g>
</g>
</svg>
