<?xml version="1.0" encoding="utf-8"?>
<!-- Generator: Adobe Illustrator 22.0.1, SVG Export Plug-In . SVG Version: 6.00 Build 0)  -->
<svg version="1.1" id="Capa_1" xmlns="http://www.w3.org/2000/svg" xmlns:xlink="http://www.w3.org/1999/xlink" x="0px" y="0px"
	 viewBox="0 0 233 156.7" style="enable-background:new 0 0 233 156.7;" xml:space="preserve">
<style type="text/css">
	.st0{enable-background:new    ;}
	.st1{fill:#FCC200;}
	.st2{fill:#1D3557;}
	.st3{fill:#1D1D1B;}
	.st4{opacity:0.387;fill:#BF9509;enable-background:new    ;}
	.st5{fill:#CBBBA0;}
	.st6{clip-path:url(#SVGID_2_);}
	.st7{fill:#FFFFFF;}
	.st8{clip-path:url(#SVGID_4_);}
</style>
<g id="Grupo_57" transform="translate(-6 -1955.309)">
	<g class="st0">
		<path class="st1" d="M35.3,2076.4c0,3,2.9,4.5,8.7,4.5v5.7H13v-5.7c5.7,0,8.6-1.5,8.6-4.5v-56.6c0-3-2.9-4.5-8.6-4.5v-5.7h22.3
			V2076.4z"/>
		<path class="st1" d="M102.4,2076.8c0,2.9,1,4.4,3,4.4c0.9,0,1.6-0.5,2.1-1.4c0.5-0.9,0.7-1.9,0.7-3.1v-5.9h4.7v4.5
			c0,2.2-0.3,4.1-0.8,5.6c-0.5,1.5-1.3,2.8-2.3,3.7c-1,0.9-2.2,1.6-3.5,2c-1.4,0.4-2.9,0.6-4.5,0.6c-1.8,0-3.3-0.3-4.6-0.9
			c-1.3-0.6-2.3-1.3-3.2-2.2c-0.9-0.9-1.5-2-2-3.2c-0.5-1.2-0.8-2.5-1.1-3.8c-0.7,1.5-1.7,2.9-3,4.2c-1.3,1.3-2.8,2.5-4.6,3.5
			c-1.8,1-3.8,1.9-6.1,2.5c-2.3,0.6-4.7,0.9-7.3,0.9c-6.3,0-10.9-1.3-13.8-3.9c-2.9-2.6-4.4-6-4.4-10.4c0-2.7,0.5-4.9,1.6-6.7
			c1-1.8,2.5-3.2,4.3-4.5c1.8-1.2,4-2.1,6.4-2.8c2.4-0.7,5-1.3,7.8-1.9c2.8-0.6,5.6-1.1,8.6-1.6c3-0.5,5.9-1.2,8.9-2v-3.1
			c0-1.7-0.2-3.2-0.6-4.7c-0.4-1.5-1.1-2.8-2.1-3.8c-1-1.1-2.2-2-3.6-2.6c-1.5-0.6-3.2-1-5.2-1c-3.4,0-6.2,0.3-8.5,1
			c-2.3,0.7-4.1,1.6-5.5,2.7c1.5,0.1,2.8,0.6,3.9,1.5c1.1,0.9,1.6,2.1,1.6,3.7c0,1.9-0.6,3.4-1.8,4.6c-1.2,1.2-3,1.8-5.3,1.8
			c-2.3,0-4.1-0.6-5.2-1.9c-1.2-1.2-1.8-3-1.8-5.1c0-1.7,0.5-3.3,1.6-5c1.1-1.7,2.6-3.2,4.6-4.5s4.5-2.4,7.5-3.2
			c3-0.8,6.4-1.2,10.1-1.2c3.1,0,6,0.3,8.9,0.9c2.9,0.6,5.4,1.5,7.6,2.9c2.2,1.4,4,3.2,5.2,5.6c1.3,2.4,2,5.4,2,9V2076.8z
			 M89.3,2058.5c-4.3,1.1-8,2-11.1,2.9c-3.1,0.9-5.7,1.9-7.8,2.9c-2.1,1-3.6,2.2-4.6,3.5c-1,1.3-1.5,3-1.5,5c0,2.4,0.8,4.3,2.5,5.6
			c1.7,1.3,4.2,2,7.6,2s6.4-0.8,9-2.5c2.6-1.6,4.6-3.5,5.9-5.7V2058.5z"/>
		<path class="st1" d="M164,2054l-5.9,0.7c-0.7-4.7-2.7-8.1-5.8-10.4c-3.2-2.3-7.2-3.4-12-3.4c-2.8,0-5.1,0.5-6.8,1.7
			c-1.7,1.1-2.6,2.6-2.6,4.5c0,2.1,0.9,3.7,2.7,4.8c1.8,1,4,1.9,6.6,2.5c2.6,0.7,5.5,1.3,8.5,1.8c3.1,0.6,5.9,1.4,8.6,2.5
			c2.6,1.1,4.8,2.7,6.6,4.8c1.8,2,2.7,4.8,2.7,8.4c0,2.5-0.5,4.8-1.4,6.7c-0.9,1.9-2.2,3.5-4,4.8s-3.7,2.3-6,2.9
			c-2.3,0.6-4.9,0.9-7.7,0.9c-4,0-7.3-0.3-9.9-1c-2.6-0.7-4.8-1.6-6.6-2.9c-0.5-0.3-1-0.5-1.5-0.8c-0.5-0.3-1-0.4-1.4-0.4
			c-0.1,0-0.5,0.4-1.1,1.2c-0.6,0.8-1,1.9-1.3,3.3h-5.8v-19.2l5.8-0.6c0.3,2.3,1.1,4.3,2.3,6.1c1.2,1.8,2.8,3.3,4.6,4.5
			c1.8,1.2,3.9,2.2,6.2,2.9c2.3,0.7,4.6,1,7,1c3.2,0,5.6-0.6,7.2-1.9c1.6-1.3,2.5-2.9,2.5-4.8c0-2.1-0.9-3.6-2.7-4.6
			c-1.8-1-4-1.9-6.6-2.5c-2.6-0.7-5.5-1.3-8.6-1.9c-3.1-0.6-5.9-1.5-8.5-2.6c-2.6-1.2-4.8-2.8-6.6-4.8c-1.8-2.1-2.7-4.9-2.7-8.5
			c0-4.6,1.6-8.2,4.8-10.8c3.2-2.6,7.7-3.9,13.6-3.9c3.1,0,5.9,0.4,8.5,1.2c2.6,0.8,4.7,1.7,6.3,2.6c0.5,0.3,1,0.6,1.5,0.9
			c0.5,0.2,0.9,0.3,1.4,0.3c0.2,0,0.6-0.4,1.1-1.1c0.5-0.7,1-1.8,1.3-3.1h5.6V2054z"/>
		<path class="st1" d="M235,2041.4c-2.4,0-4.2,0.3-5.3,0.9c-1.1,0.6-1.9,1.4-2.4,2.5l-18.2,43.8c-1.4,3.4-2.7,6.4-3.8,9
			c-1.2,2.6-2.5,4.7-3.9,6.5c-1.4,1.8-3.1,3.1-5,4c-1.9,0.9-4.4,1.3-7.3,1.3c-4.6,0-8.3-1.1-11.2-3.5c-2.9-2.3-4.3-5.4-4.3-9.2
			c0-0.7,0.1-1.4,0.4-2.3c0.3-0.9,0.7-1.7,1.3-2.4c0.6-0.7,1.3-1.4,2.2-1.9c0.9-0.5,1.9-0.8,3.1-0.8c2.3,0,4.1,0.6,5.2,1.7
			c1.1,1.1,1.7,2.5,1.7,4c0,1.7-0.5,3.1-1.5,4c-1,1-2.4,1.5-4.1,1.8c0.6,1,1.4,1.8,2.5,2.4c1.1,0.6,2.9,0.9,5.5,0.9
			c2.4,0,4.4-1,5.9-2.9c1.5-1.9,3.2-4.9,5.1-9l-20-47.4c-1.1-2.3-3.5-3.5-7.2-3.5v-5.7h28.6v5.7h-4.9c-1.9,0-2.9,0.6-2.9,1.9
			c0,0.5,0.1,1,0.3,1.5l13,32.7l13.2-31.8c0.2-0.6,0.3-1.1,0.3-1.6c0-1.8-1.4-2.7-4.3-2.7h-3v-5.7H235V2041.4z"/>
	</g>
	<g class="st0">
		<path class="st2" d="M101.3,1989.4c4,0,7.5,1.1,10.5,3.3c3.1,2.2,5.4,5.1,7.1,8.8c1.7,3.7,2.5,7.6,2.5,11.9c0,4.3-0.8,8.3-2.4,12
			s-3.9,6.6-6.9,8.8c-3,2.2-6.4,3.2-10.3,3.2c-4.9,0-9.4-2-13.5-6v5.3H65.5V2026h8v-45h-8v-10.6h22.7v25.4
			C91.9,1991.5,96.3,1989.4,101.3,1989.4z M97.2,2025.9c2.8,0,5-1.2,6.6-3.5c1.6-2.3,2.4-5.4,2.4-9.3c0-3.8-0.8-6.8-2.4-8.8
			c-1.6-2-3.8-3-6.5-3c-2.9,0-5.1,1.1-6.7,3.4s-2.4,5.3-2.4,9.1c0,3.5,0.8,6.4,2.5,8.7C92.3,2024.7,94.5,2025.9,97.2,2025.9z"/>
		<path class="st2" d="M177.2,2016.6h-34.5c0.4,3.5,1.6,6.4,3.7,8.4c2.1,2.1,4.8,3.1,8.1,3.1c3.7,0,7.2-1.8,10.7-5.4l11.4,3.7
			c-2.5,3.8-5.6,6.6-9.4,8.5c-3.7,1.9-8.1,2.8-13.2,2.8s-9.6-1-13.5-2.9c-3.9-1.9-6.9-4.6-9.1-8.2s-3.2-7.6-3.2-12.4
			c0-4.7,1.1-8.9,3.4-12.7s5.3-6.8,9.1-8.9c3.8-2.2,8-3.2,12.5-3.2c4.9,0,9.1,1.1,12.7,3.4c3.6,2.2,6.4,5.4,8.3,9.5
			C176.1,2006.4,177.1,2011.1,177.2,2016.6z M152.4,1999.2c-2.6,0-4.8,0.8-6.3,2.3c-1.6,1.5-2.6,3.9-3,7h19.2
			c-0.4-2.8-1.5-5-3.4-6.7C157.1,2000,154.9,1999.2,152.4,1999.2z"/>
		<path class="st2" d="M232,2016.6h-34.5c0.4,3.5,1.6,6.4,3.7,8.4c2.1,2.1,4.8,3.1,8.1,3.1c3.7,0,7.2-1.8,10.7-5.4l11.4,3.7
			c-2.5,3.8-5.6,6.6-9.4,8.5c-3.7,1.9-8.1,2.8-13.2,2.8s-9.6-1-13.5-2.9c-3.9-1.9-6.9-4.6-9.1-8.2s-3.2-7.6-3.2-12.4
			c0-4.7,1.1-8.9,3.4-12.7s5.3-6.8,9.1-8.9c3.8-2.2,8-3.2,12.5-3.2c4.9,0,9.1,1.1,12.7,3.4c3.6,2.2,6.4,5.4,8.3,9.5
			C230.9,2006.4,231.9,2011.1,232,2016.6z M207.2,1999.2c-2.6,0-4.8,0.8-6.3,2.3c-1.6,1.5-2.6,3.9-3,7h19.2c-0.4-2.8-1.5-5-3.4-6.7
			C211.9,2000,209.7,1999.2,207.2,1999.2z"/>
	</g>
	<g id="Grupo_53" transform="matrix(0.788, 0.616, -0.616, 0.788, -44.318, 1461.822)">
		<path id="Trazado_5" class="st3" d="M394,378.3l3.3,16.7l4.4-17.4L394,378.3z"/>
		<path id="Trazado_16" class="st1" d="M398,331.5c11.5,0,20.8,11.5,20.8,25.7S409.4,383,398,383c-11.5,0-20.8-11.5-20.8-25.7
			S386.5,331.5,398,331.5z"/>
		<path id="Trazado_6" class="st4" d="M418.7,357.2c0,14.2-9.3,25.7-20.8,25.7c7.2-5.8,9.7-11.5,9.7-25.7s-4.4-20.8-9.7-25.7
			C409.4,331.5,418.7,343,418.7,357.2z"/>
		<g id="Grupo_46" transform="translate(431.944 305.869)">
			<path class="st3" d="M-16,41.5c-1.5,1.2-5.8,2.9-18.1,2.9c-14.2,0-17.8-2.2-18.7-3.5c-0.6-0.9-0.4-2.1,0.5-2.8
				c0.8-0.6,1.9-0.4,2.6,0.3c0.3,0.2,3.2,2,15.6,2c12.4,0,15.3-1.8,15.6-2c0.7-0.7,1.8-0.9,2.6-0.3c0.9,0.6,1.1,1.9,0.5,2.8
				C-15.5,41.1-15.7,41.3-16,41.5z M-18.7,38.6C-18.7,38.6-18.7,38.6-18.7,38.6C-18.7,38.6-18.7,38.6-18.7,38.6z M-18.7,38.6
				C-18.7,38.6-18.7,38.6-18.7,38.6C-18.7,38.6-18.7,38.6-18.7,38.6z M-18.7,38.6C-18.7,38.6-18.7,38.6-18.7,38.6
				C-18.7,38.6-18.7,38.6-18.7,38.6z M-49.5,38.6C-49.5,38.6-49.5,38.6-49.5,38.6C-49.5,38.6-49.5,38.6-49.5,38.6z M-49.5,38.6
				C-49.5,38.6-49.5,38.6-49.5,38.6C-49.5,38.6-49.5,38.6-49.5,38.6z M-49.5,38.6C-49.5,38.6-49.5,38.6-49.5,38.6
				C-49.5,38.6-49.5,38.6-49.5,38.6z M-49.7,38.4L-49.7,38.4L-49.7,38.4z"/>
			<path class="st3" d="M-13.3,52.6c-2.2,1.8-7.8,4.1-21.6,4.1c-18.1,0-22.1-3.9-23-5.6c-0.6-1.2-0.2-2.7,1.1-3.4
				c1.1-0.6,2.5-0.2,3.2,0.8c0.3,0.3,3.7,3.2,18.7,3.2c14.9,0,18.5-2.9,18.6-2.9c0.6-1.2,2.2-1.7,3.4-1c1.2,0.6,1.7,2.2,1,3.4
				C-12.2,51.4-12.5,52-13.3,52.6z M-53.5,48.8C-53.5,48.8-53.5,48.8-53.5,48.8C-53.5,48.8-53.5,48.8-53.5,48.8z M-53.5,48.8
				C-53.5,48.8-53.5,48.8-53.5,48.8C-53.5,48.8-53.5,48.8-53.5,48.8z"/>
			<path class="st3" d="M-16.1,66.2c-0.3,0.2-0.6,0.4-0.9,0.5c-0.2,0.1-5.5,1.7-16.6,1.7c-10.7,0-17-2.1-17.3-2.2
				c-1.6-0.5-2.4-2.2-1.9-3.8c0.5-1.6,2.2-2.4,3.8-1.9c0.1,0,5.7,1.9,15.3,1.9c10,0,14.7-1.4,14.8-1.4c1.6-0.5,3.3,0.4,3.8,2
				C-14.7,64.2-15.2,65.5-16.1,66.2z"/>
		</g>
		<g id="Grupo_49" transform="translate(416.006 300.931)">
			<path id="Trazado_10" class="st5" d="M-32.9,62.3C-37,70.5-43,72.3-48.5,69.6s-8.4-9-4.3-17.2s19-12.4,19-12.4
				S-28.9,54.1-32.9,62.3z"/>
			<g id="Grupo_48" transform="translate(0.757 0)">
				<g>
					<defs>
						<path id="SVGID_1_" d="M-34.6,61.1c-4,8-9.5,10.1-14.3,7.7s-8-8.6-4-16.6s18.5-12.5,18.5-12.5S-30.6,53.1-34.6,61.1z"/>
					</defs>
					<clipPath id="SVGID_2_">
						<use xlink:href="#SVGID_1_"  style="overflow:visible;"/>
					</clipPath>
					<g id="Grupo_47" class="st6">
						<path id="Trazado_11" class="st7" d="M-36.3,58.1c-4,8-9.5,10.1-14.3,7.7c-4.8-2.4-6.4-11.4,0.3-17.4
							c10.8-9.7,14.1-11.6,14.1-11.6S-32.3,50.1-36.3,58.1z"/>
					</g>
				</g>
			</g>
		</g>
		<g id="Grupo_52" transform="translate(465.939 300.931)">
			<path id="Trazado_13" class="st5" d="M-53.2,62.3c4.1,8.2,10.1,10.1,15.6,7.3s8.4-9,4.3-17.2s-19-12.4-19-12.4
				S-57.2,54.1-53.2,62.3z"/>
			<g id="Grupo_51" transform="translate(0.696 0)">
				<g>
					<defs>
						<path id="SVGID_3_" d="M-52.9,61.1c4,8,9.5,10.1,14.3,7.7c4.8-2.4,8-8.6,4-16.6s-18.5-12.5-18.5-12.5S-56.9,53.1-52.9,61.1z"
							/>
					</defs>
					<clipPath id="SVGID_4_">
						<use xlink:href="#SVGID_3_"  style="overflow:visible;"/>
					</clipPath>
					<g id="Grupo_50" class="st8">
						<path id="Trazado_14" class="st7" d="M-52.1,57.9c4,8,9.5,10.1,14.3,7.7c4.8-2.4,6.4-11.4-0.3-17.4
							c-10.8-9.7-14.1-11.6-14.1-11.6S-56.1,49.8-52.1,57.9z"/>
					</g>
				</g>
			</g>
		</g>
	</g>
</g>
</svg>
